<svg width="410" height="384" viewBox="0 0 410 384" fill="none" xmlns="http://www.w3.org/2000/svg">
<path d="M41.3942 12.625H232.596C248.926 12.625 262.163 25.8627 262.163 42.1923V97.3846H177.404C148.011 97.3846 124.183 121.213 124.183 150.606V262.962H41.3942C25.0647 262.962 11.8269 249.724 11.8269 233.394V42.1923C11.8269 25.8627 25.0647 12.625 41.3942 12.625ZM147.837 341.808V286.615H232.596C261.989 286.615 285.817 262.787 285.817 233.394V121.038H368.606C384.935 121.038 398.173 134.276 398.173 150.606V341.808C398.173 358.137 384.935 371.375 368.606 371.375H177.404C161.074 371.375 147.837 358.137 147.837 341.808ZM177.404 121.038H262.163V233.394C262.163 249.724 248.926 262.962 232.596 262.962H147.837V150.606C147.837 134.276 161.074 121.038 177.404 121.038Z" stroke="white" stroke-width="23.6538"/>
</svg>