<svg width="61" height="59" viewBox="0 0 61 59" fill="none" xmlns="http://www.w3.org/2000/svg">
<path d="M20.0985 47.5056C20.0985 47.7493 19.8549 47.8711 19.4895 47.8711C19.1241 47.9929 18.8804 47.7493 18.8804 47.5056C18.8804 47.262 19.1241 47.0184 19.4895 47.0184C19.8549 47.0184 20.0985 47.262 20.0985 47.5056ZM16.3225 46.8966C16.4443 46.653 16.8097 46.5312 17.1751 46.653C17.5405 46.7748 17.6624 47.0184 17.6624 47.262C17.5405 47.5056 17.1751 47.6275 16.9315 47.5056C16.5661 47.5056 16.3225 47.1402 16.3225 46.8966ZM21.8039 46.7748C22.0475 46.653 22.4129 46.8966 22.4129 47.1402C22.5347 47.3838 22.2911 47.5056 21.9257 47.6275C21.5603 47.7493 21.1948 47.6275 21.1948 47.3838C21.1948 47.0184 21.4384 46.7748 21.8039 46.7748ZM29.7215 0C46.653 0 60.4174 12.9118 60.4174 29.7215C60.4174 43.2423 52.1344 54.8142 39.9535 58.8339C38.3699 59.1993 37.7609 58.2249 37.7609 57.3722C37.7609 56.3977 37.8827 51.2817 37.8827 47.262C37.8827 44.3386 36.9082 42.5115 35.8119 41.537C42.6333 40.8061 49.82 39.8317 49.82 28.138C49.82 24.7273 48.6019 23.1438 46.653 20.9512C46.8966 20.0985 47.9929 16.9315 46.2875 12.6682C43.7296 11.8155 37.8827 15.957 37.8827 15.957C35.4465 15.2262 32.8885 14.9825 30.2087 14.9825C27.6507 14.9825 25.0927 15.2262 22.6565 15.957C22.6565 15.957 16.6879 11.9373 14.2517 12.6682C12.5464 16.9315 13.5208 20.0985 13.8863 20.9512C11.9373 23.1438 10.9628 24.7273 10.9628 28.138C10.9628 39.8317 17.906 40.8061 24.7273 41.537C23.7528 42.3897 23.022 43.7296 22.7783 45.6785C20.9512 46.5312 16.5661 47.8711 13.8863 43.1205C12.1809 40.1971 9.1357 39.9535 9.1357 39.9535C6.21228 39.9535 9.01389 41.9024 9.01389 41.9024C10.9628 42.7551 12.3027 46.2876 12.3027 46.2876C14.1299 51.769 22.6565 49.9418 22.6565 49.9418C22.6565 52.4998 22.6565 56.6413 22.6565 57.494C22.6565 58.2249 22.1693 59.1993 20.5858 58.9557C8.40484 54.8142 0 43.2423 0 29.7215C0 12.9118 12.9118 0 29.7215 0ZM11.8155 42.0242C11.9373 41.9024 12.1809 42.0242 12.4246 42.146C12.6682 42.3897 12.6682 42.7551 12.5464 42.8769C12.3027 42.9987 12.0591 42.8769 11.8155 42.7551C11.6937 42.5115 11.5719 42.146 11.8155 42.0242ZM10.4756 41.0498C10.5974 40.9279 10.7192 40.9279 10.9628 41.0498C11.2065 41.1716 11.3283 41.2934 11.3283 41.4152C11.2065 41.6588 10.9628 41.6588 10.7192 41.537C10.4756 41.4152 10.3538 41.2934 10.4756 41.0498ZM14.3735 45.4349C14.6171 45.1913 14.9825 45.3131 15.2262 45.5567C15.4698 45.8003 15.4698 46.1657 15.348 46.2876C15.2262 46.5312 14.8607 46.4094 14.6171 46.1657C14.2517 45.9221 14.2517 45.5567 14.3735 45.4349ZM13.0336 43.6077C13.2772 43.4859 13.5208 43.6077 13.7645 43.8514C13.8863 44.095 13.8863 44.4604 13.7645 44.5822C13.5208 44.704 13.2772 44.5822 13.0336 44.3386C12.79 44.095 12.79 43.7296 13.0336 43.6077Z" fill="#F2F2F2"/>
</svg>