<svg width="78" height="79" viewBox="0 0 78 79" fill="none" xmlns="http://www.w3.org/2000/svg">
<path d="M54.506 30.4998L47.6127 36.1006" stroke="#F2F2F2" stroke-width="0.861659" stroke-linecap="round"/>
<path d="M29.9485 40.8397L22.1936 39.5473" stroke="#F2F2F2" stroke-width="0.861659" stroke-linecap="round"/>
<path d="M35.0094 45.1983L35.1131 45.0946C35.6075 44.6002 36.3902 44.5446 36.9496 44.9641L37.0075 45.0075C37.4307 45.3249 37.997 45.376 38.4701 45.1394C39.0321 44.8584 39.7125 44.9873 40.1329 45.4543L40.8964 46.3027C42.1317 47.6752 41.784 49.8377 40.1808 50.7538L39.4321 51.1817C38.1304 51.9255 36.5035 51.7823 35.3518 50.8225L35.2611 50.7469C33.5621 49.3311 33.4456 46.7621 35.0094 45.1983Z" fill="#F2F2F2" stroke="#F2F2F2" stroke-width="0.861659"/>
<path d="M42.444 54.142H48.4688L46.7454 55.8653L45.4379 57.4343C44.8814 58.1021 44.1748 58.6288 43.3758 58.9712C42.2113 59.4703 40.9103 59.5527 39.6922 59.2047L39.1847 59.0597C38.7689 58.9409 38.365 58.7838 37.9783 58.5904L36.1237 57.6631C36.025 57.6138 35.9349 57.5488 35.8569 57.4708C35.3172 56.9311 35.5341 56.0121 36.2582 55.7708L38.5597 55.0036L39.1074 54.7845C40.1686 54.36 41.301 54.142 42.444 54.142Z" fill="#F2F2F2"/>
<path d="M51.4846 52.8495L51.4106 52.9234C50.6304 53.7036 49.5722 54.142 48.4688 54.142V54.142M48.4688 54.142H42.444C41.301 54.142 40.1686 54.36 39.1074 54.7845L38.5597 55.0036L36.2582 55.7708C35.5341 56.0121 35.3172 56.9311 35.8569 57.4708V57.4708C35.9349 57.5488 36.025 57.6138 36.1237 57.6631L37.9783 58.5904C38.365 58.7838 38.7689 58.9409 39.1847 59.0597L39.6922 59.2047C40.9103 59.5527 42.2113 59.4703 43.3758 58.9712V58.9712C44.1748 58.6288 44.8814 58.1021 45.4379 57.4343L46.7454 55.8653L48.4688 54.142Z" stroke="#F2F2F2" stroke-width="0.861659" stroke-linecap="round"/>
<path d="M45.3749 7.79834L38.8424 6.20557L34.1557 4.80023L30.0379 7.44297L24.1974 10.7746L14.6889 17.1327L10.2037 23.5021L7.32318 31.0808L11.1924 30.537L8.11413 36.7087L5.99225 42.0287L9.05339 43.3919L7.07981 49.7671L11.4605 45.2058L8.93171 52.735L12.7952 54.7029L7.2053 60.8689L11.6734 62.0344L10.9585 67.1566L15.7404 62.8976L19.0487 66.0196L17.7349 69.4325L21.7086 67.0805L22.4007 72.005L27.61 67.1566L43.9104 73.729L58.1157 64.0714L63.9794 66.1615L63.2874 61.237L67.7555 62.4025L65.5518 59.484L67.8714 55.5711L73.642 58.347L71.5429 53.6203L75.5167 51.2684L68.4437 46.882L71.6152 43.9254L67.109 37.3849L72.5772 40.562L68.9229 34.9778L71.4897 32.8236L67.9836 28.2946L63.3235 23.2105L67.1927 22.6667L62.3348 16.1756L56.2676 11.2892L45.3749 7.79834Z" stroke="#F2F2F2" stroke-width="0.710405"/>
<path d="M51.8509 21.5577L54.0427 19.0311L51.5258 19.9711L52.5183 17.7698L48.1521 19.9817" stroke="#F2F2F2" stroke-width="0.350675"/>
</svg>