<svg width="61" height="61" viewBox="0 0 61 61" fill="none" xmlns="http://www.w3.org/2000/svg">
<path d="M30.2087 0C46.7748 0 60.4174 13.6426 60.4174 30.2087C60.4174 46.8966 46.7748 60.4174 30.2087 60.4174C13.5208 60.4174 0 46.8966 0 30.2087C0 13.6426 13.5208 0 30.2087 0ZM42.3896 44.4604C43.3641 44.4604 44.2168 43.7296 44.2168 42.6333C44.2168 41.537 43.8514 41.0497 43.1205 40.5625C34.3502 35.4465 24.2401 35.2029 14.2517 37.3955C13.2772 37.6391 12.5464 38.2481 12.5464 39.4662C12.5464 40.4407 13.2772 41.4152 14.4953 41.4152C14.8607 41.4152 15.4698 41.1716 15.957 41.0497C24.7273 39.3444 33.4976 39.4662 41.1716 44.095C41.537 44.3386 41.9024 44.4604 42.3896 44.4604ZM45.6785 36.5428C47.0184 36.5428 47.9929 35.4465 48.1147 34.1066C48.1147 33.1321 47.6275 32.2795 46.653 31.7922C40.6843 28.138 33.0103 26.189 25.0927 26.189C20.0985 26.189 16.5661 26.9199 13.1554 27.8943C11.9373 28.2598 11.3283 29.1124 11.3283 30.3305C11.3283 31.6704 12.4246 32.7667 13.6426 32.7667C14.2517 32.7667 14.4953 32.5231 15.1044 32.4013C25.2145 29.7215 36.5428 31.5486 44.2168 36.0556C44.5822 36.1774 45.0695 36.5428 45.6785 36.5428ZM49.4546 27.2853C50.9163 27.2853 52.2562 26.0672 52.2562 24.3619C52.2562 22.9002 51.6472 22.1693 50.6727 21.6821C43.9732 17.6624 34.5939 15.8352 25.7018 15.8352C20.464 15.8352 15.7134 16.4443 11.4501 17.6624C10.3538 18.0278 9.25751 18.8804 9.25751 20.5858C9.25751 22.1693 10.4756 23.5092 12.0591 23.5092C12.6682 23.5092 13.2772 23.2656 13.6426 23.1438C23.7528 20.3422 39.2226 21.5603 47.8711 26.7981C48.4801 27.0417 48.8455 27.2853 49.4546 27.2853Z" fill="#F2F2F2"/>
</svg>