<svg width="80" height="59" viewBox="0 0 356 275" fill="none" xmlns="http://www.w3.org/2000/svg">
<path d="M113.235 48.5294H242.647V64.7059H113.235V48.5294Z" fill="#F2F2F2"/>
<path d="M242.647 32.3529H258.824V48.5294H242.647V32.3529Z" fill="#F2F2F2"/>
<path d="M258.824 16.1765H275V32.3529H258.824V16.1765Z" fill="#F2F2F2"/>
<path d="M97.0588 32.3529H113.235V48.5294H97.0588V32.3529Z" fill="#F2F2F2"/>
<path d="M80.8823 16.1765H97.0588V32.3529H80.8823V16.1765Z" fill="#F2F2F2"/>
<path d="M48.5294 0H80.8823V16.1765H48.5294V0Z" fill="#F2F2F2"/>
<path d="M275 0H307.353V16.1765H275V0Z" fill="#F2F2F2"/>
<path d="M307.353 16.1765H323.529V80.8823H307.353V16.1765Z" fill="#F2F2F2"/>
<path d="M32.3529 16.1765H48.5294V80.8823H32.3529V16.1765Z" fill="#F2F2F2"/>
<path d="M48.5294 80.8823H64.7059V129.412H48.5294V80.8823Z" fill="#F2F2F2"/>
<path d="M291.176 80.8823H307.353V129.412H291.176V80.8823Z" fill="#F2F2F2"/>
<path d="M210.294 113.235H242.647V145.588H210.294V113.235Z" fill="#F2F2F2"/>
<path d="M113.235 113.235H145.588V145.588H113.235V113.235Z" fill="#F2F2F2"/>
<path d="M307.353 129.412H323.529V161.765H307.353V129.412Z" fill="#F2F2F2"/>
<path d="M32.3529 129.412H48.5294V161.765H32.3529V129.412Z" fill="#F2F2F2"/>
<path d="M161.765 161.765H177.941V177.941H161.765V161.765Z" fill="#F2F2F2"/>
<path d="M16.1765 161.765H32.3529V177.941H16.1765V161.765Z" fill="#F2F2F2"/>
<path d="M323.529 161.765H339.706V177.941H323.529V161.765Z" fill="#F2F2F2"/>
<path d="M307.353 177.941H355.882V194.118H307.353V177.941Z" fill="#F2F2F2"/>
<path d="M0 177.941H48.5294V194.118H0V177.941Z" fill="#F2F2F2"/>
<path d="M32.3529 194.118H64.7059V210.294H32.3529V194.118Z" fill="#F2F2F2"/>
<path d="M291.176 194.118H323.529V210.294H291.176V194.118Z" fill="#F2F2F2"/>
<path d="M275 210.294H307.353V226.471H275V210.294Z" fill="#F2F2F2"/>
<path d="M242.647 226.471H275V242.647H242.647V226.471Z" fill="#F2F2F2"/>
<path d="M210.294 242.647H242.647V258.824H210.294V242.647Z" fill="#F2F2F2"/>
<path d="M113.235 242.647H145.588V258.824H113.235V242.647Z" fill="#F2F2F2"/>
<path d="M129.412 258.824H226.471V275H129.412V258.824Z" fill="#F2F2F2"/>
<path d="M80.8823 226.471H113.235V242.647H80.8823V226.471Z" fill="#F2F2F2"/>
<path d="M48.5294 210.294H80.8823V226.471H48.5294V210.294Z" fill="#F2F2F2"/>
</svg>